<?xml version="1.0" standalone="no"?>
<!DOCTYPE svg PUBLIC "-//W3C//DTD SVG 20010904//EN"
 "http://www.w3.org/TR/2001/REC-SVG-20010904/DTD/svg10.dtd">
<svg version="1.0" xmlns="http://www.w3.org/2000/svg"
 width="210.000000pt" height="210.000000pt" viewBox="0 0 210.000000 210.000000"
 preserveAspectRatio="xMidYMid meet">
<metadata>
Created by potrace 1.11, written by Peter Selinger 2001-2013
</metadata>
<g transform="translate(0.000000,210.000000) scale(0.100000,-0.100000)"
fill="#000000" stroke="none">
<path d="M795 1575 c-338 -55 -607 -208 -694 -395 -36 -77 -41 -184 -12 -260
82 -216 381 -383 775 -431 122 -15 376 -7 501 16 271 49 516 179 614 326 202
302 -44 609 -584 731 -121 27 -466 34 -600 13z m512 -31 c251 -37 451 -123
584 -251 91 -87 124 -154 124 -253 0 -105 -39 -184 -134 -272 -255 -236 -795
-324 -1251 -203 -179 48 -369 157 -450 260 -63 80 -75 112 -75 210 0 80 3 96
29 145 91 173 351 314 672 364 123 19 373 20 501 0z"/>
<path d="M880 1494 c-19 -3 -80 -14 -135 -25 -599 -125 -748 -537 -280 -772
476 -239 1257 -120 1433 218 36 68 37 169 4 236 -52 106 -165 195 -331 260
-153 60 -267 80 -476 84 -99 2 -196 1 -215 -1z m-280 -454 l0 -220 -100 0
-100 0 0 220 0 220 100 0 100 0 0 -220z m52 158 l3 -63 67 63 67 62 146 0 145
0 -2 -222 -3 -223 -97 -3 -98 -3 0 196 0 195 -41 0 c-36 0 -49 -7 -110 -61
-38 -34 -69 -65 -69 -68 0 -3 43 -59 95 -125 52 -65 95 -120 95 -122 0 -2 -12
-4 -27 -4 -23 0 -41 16 -98 88 l-70 87 -3 -87 c-3 -80 -5 -88 -22 -88 -19 0
-20 8 -20 220 0 212 1 220 20 220 16 0 19 -8 22 -62z m637 28 c16 -16 36 -50
44 -79 13 -44 16 -47 16 -22 1 24 3 27 12 15 9 -13 10 -12 5 3 -8 26 10 64 40
84 22 14 50 17 155 18 128 0 139 -3 139 -36 0 -5 -29 -9 -65 -9 -36 0 -65 -2
-65 -4 0 -2 31 -57 70 -123 81 -137 88 -173 43 -223 -36 -40 -106 -53 -128
-24 -13 17 -14 17 -9 1 6 -16 -7 -17 -222 -15 l-229 3 -3 210 c-1 115 0 216 3
224 4 11 23 13 85 9 71 -4 84 -8 109 -32z"/>
<path d="M1137 1203 c-4 -3 -7 -80 -7 -170 l0 -163 60 0 c92 0 115 38 113 182
0 78 -27 139 -64 149 -32 9 -94 11 -102 2z"/>
<path d="M1346 998 c-4 -34 -14 -78 -22 -97 -8 -19 -13 -36 -10 -38 2 -2 38
-3 80 -1 l76 3 -59 98 -58 98 -7 -63z"/>
<path d="M1460 970 c6 -11 13 -20 16 -20 2 0 0 9 -6 20 -6 11 -13 20 -16 20
-2 0 0 -9 6 -20z"/>
<path d="M1490 920 c6 -11 13 -20 16 -20 2 0 0 9 -6 20 -6 11 -13 20 -16 20
-2 0 0 -9 6 -20z"/>
<path d="M1520 870 c6 -11 13 -20 16 -20 2 0 0 9 -6 20 -6 11 -13 20 -16 20
-2 0 0 -9 6 -20z"/>
</g>
</svg>
